<svg width="570" height="31" viewBox="0 0 570 31" fill="none" xmlns="http://www.w3.org/2000/svg">
<path d="M247.5 2.44189L250.364 8.52189L256.747 9.52489L252.153 14.1649L253.227 20.8089L247.5 17.6749L241.773 20.8089L242.906 14.1639L238.313 9.46289L244.696 8.45989L247.5 2.44189Z" fill="white"/>
<path d="M285.5 2.44189L288.364 8.52189L294.747 9.52489L290.153 14.1649L291.227 20.8089L285.5 17.6749L279.773 20.8089L280.906 14.1639L276.313 9.46289L282.696 8.45989L285.5 2.44189Z" fill="white"/>
<path d="M323.5 2.44189L326.364 8.52189L332.747 9.52489L328.153 14.1649L329.227 20.8089L323.5 17.6749L317.773 20.8089L318.906 14.1639L314.313 9.46289L320.696 8.45989L323.5 2.44189Z" fill="white"/>
<path d="M266.5 2.44189L269.364 8.52189L275.747 9.52489L271.153 14.1649L272.227 20.8089L266.5 17.6749L260.773 20.8089L261.906 14.1639L257.313 9.46289L263.696 8.45989L266.5 2.44189Z" fill="white"/>
<path d="M304.5 2.44189L307.364 8.52189L313.747 9.52489L309.153 14.1649L310.227 20.8089L304.5 17.6749L298.773 20.8089L299.906 14.1639L295.313 9.46289L301.696 8.45989L304.5 2.44189Z" fill="white"/>
</svg>
